  0
SECTION
  2
BLOCKS
  0
ENDSEC
  0
SECTION
  2
ENTITIES
  0
LINE
  8
0
 10
-2.73622
 20
2.16534
 11
-2.85432
 21
2.16534
  0
LINE
  8
0
 10
-2.85432
 20
2.16534
 11
-2.85432
 21
1.77164
  0
LINE
  8
0
 10
-2.85432
 20
1.77164
 11
-2.73622
 21
1.77164
  0
LINE
  8
0
 10
-2.73622
 20
1.77164
 11
-2.73622
 21
1.37793
  0
LINE
  8
0
 10
-2.73622
 20
1.37793
 11
-2.85432
 21
1.37793
  0
LINE
  8
0
 10
-2.85432
 20
1.37793
 11
-2.85432
 21
0.984238
  0
LINE
  8
0
 10
-2.85432
 20
0.984238
 11
-2.73622
 21
0.984238
  0
LINE
  8
0
 10
-2.73622
 20
0.984238
 11
-2.73622
 21
0.59053
  0
LINE
  8
0
 10
-2.73622
 20
0.59053
 11
-2.85432
 21
0.59053
  0
LINE
  8
0
 10
-2.85432
 20
0.59053
 11
-2.85432
 21
0.196838
  0
LINE
  8
0
 10
-2.85432
 20
0.196838
 11
-2.73622
 21
0.196838
  0
LINE
  8
0
 10
-2.73622
 20
0.196838
 11
-2.73622
 21
-0.196854
  0
LINE
  8
0
 10
-2.73622
 20
-0.196854
 11
-2.85432
 21
-0.196854
  0
LINE
  8
0
 10
-2.85432
 20
-0.196854
 11
-2.85432
 21
-0.590561
  0
LINE
  8
0
 10
-2.85432
 20
-0.590561
 11
-2.73622
 21
-0.590561
  0
LINE
  8
0
 10
-2.73622
 20
-0.590561
 11
-2.73622
 21
-0.984253
  0
LINE
  8
0
 10
-2.73622
 20
-0.984253
 11
-2.85432
 21
-0.984253
  0
LINE
  8
0
 10
-2.85432
 20
-0.984253
 11
-2.85432
 21
-1.37796
  0
LINE
  8
0
 10
-2.85432
 20
-1.37796
 11
-2.73622
 21
-1.37796
  0
LINE
  8
0
 10
-2.73622
 20
-1.37796
 11
-2.73622
 21
-1.77165
  0
LINE
  8
0
 10
-2.73622
 20
-1.77165
 11
-2.85432
 21
-1.77165
  0
LINE
  8
0
 10
-2.85432
 20
-1.77165
 11
-2.85432
 21
-2.16536
  0
LINE
  8
0
 10
-2.85432
 20
-2.16536
 11
-2.73622
 21
-2.16536
  0
LINE
  8
0
 10
-2.73622
 20
-2.16536
 11
-2.73622
 21
-2.55905
  0
LINE
  8
0
 10
-2.73622
 20
-2.55905
 11
2.73622
 21
-2.55905
  0
LINE
  8
0
 10
2.73622
 20
-2.55905
 11
2.73622
 21
-2.16536
  0
LINE
  8
0
 10
2.73622
 20
-2.16536
 11
2.85432
 21
-2.16536
  0
LINE
  8
0
 10
2.85432
 20
-2.16536
 11
2.85432
 21
-1.77165
  0
LINE
  8
0
 10
2.85432
 20
-1.77165
 11
2.73622
 21
-1.77165
  0
LINE
  8
0
 10
2.73622
 20
-1.77165
 11
2.73622
 21
-1.37796
  0
LINE
  8
0
 10
2.73622
 20
-1.37796
 11
2.85432
 21
-1.37796
  0
LINE
  8
0
 10
2.85432
 20
-1.37796
 11
2.85432
 21
-0.984253
  0
LINE
  8
0
 10
2.85432
 20
-0.984253
 11
2.73622
 21
-0.984253
  0
LINE
  8
0
 10
2.73622
 20
-0.984253
 11
2.73622
 21
-0.590561
  0
LINE
  8
0
 10
2.73622
 20
-0.590561
 11
2.85432
 21
-0.590561
  0
LINE
  8
0
 10
2.85432
 20
-0.590561
 11
2.85432
 21
-0.196854
  0
LINE
  8
0
 10
2.85432
 20
-0.196854
 11
2.73622
 21
-0.196854
  0
LINE
  8
0
 10
2.73622
 20
-0.196854
 11
2.73622
 21
0.196838
  0
LINE
  8
0
 10
2.73622
 20
0.196838
 11
2.85432
 21
0.196838
  0
LINE
  8
0
 10
2.85432
 20
0.196838
 11
2.85432
 21
0.59053
  0
LINE
  8
0
 10
2.85432
 20
0.59053
 11
2.73622
 21
0.59053
  0
LINE
  8
0
 10
2.73622
 20
0.59053
 11
2.73622
 21
0.984238
  0
LINE
  8
0
 10
2.73622
 20
0.984238
 11
2.85432
 21
0.984238
  0
LINE
  8
0
 10
2.85432
 20
0.984238
 11
2.85432
 21
1.37793
  0
LINE
  8
0
 10
2.85432
 20
1.37793
 11
2.73622
 21
1.37793
  0
LINE
  8
0
 10
2.73622
 20
1.37793
 11
2.73622
 21
1.77164
  0
LINE
  8
0
 10
2.73622
 20
1.77164
 11
2.85432
 21
1.77164
  0
LINE
  8
0
 10
2.85432
 20
1.77164
 11
2.85432
 21
2.16534
  0
LINE
  8
0
 10
2.85432
 20
2.16534
 11
2.73622
 21
2.16534
  0
LINE
  8
0
 10
2.73622
 20
2.16534
 11
2.73622
 21
2.55904
  0
LINE
  8
0
 10
2.73622
 20
2.55904
 11
-2.73622
 21
2.55904
  0
LINE
  8
0
 10
-2.73622
 20
2.55904
 11
-2.73622
 21
2.16534
  0
LINE
  8
0
 10
-1.13393
 20
2.06693
 11
-1.00577
 21
2.13737
  0
LINE
  8
0
 10
-1.00577
 20
2.13737
 11
-0.72995
 21
2.24658
  0
LINE
  8
0
 10
-0.72995
 20
2.24658
 11
-0.442627
 21
2.32036
  0
LINE
  8
0
 10
-0.442627
 20
2.32036
 11
-0.148315
 21
2.35754
  0
LINE
  8
0
 10
-0.148315
 20
2.35754
 11
0.148315
 21
2.35754
  0
LINE
  8
0
 10
0.148315
 20
2.35754
 11
0.442627
 21
2.32036
  0
LINE
  8
0
 10
0.442627
 20
2.32036
 11
0.72995
 21
2.24658
  0
LINE
  8
0
 10
0.72995
 20
2.24658
 11
1.00577
 21
2.13737
  0
LINE
  8
0
 10
1.00577
 20
2.13737
 11
1.13393
 21
2.06693
  0
LINE
  8
0
 10
1.13393
 20
2.06693
 11
-1.13393
 21
2.06693
  0
LINE
  8
0
 10
2.05032
 20
1.9799
 11
2.02921
 21
1.98677
  0
LINE
  8
0
 10
2.02921
 20
1.98677
 11
2.01045
 21
1.99867
  0
LINE
  8
0
 10
2.01045
 20
1.99867
 11
1.99525
 21
2.01486
  0
LINE
  8
0
 10
1.99525
 20
2.01486
 11
1.98456
 21
2.03432
  0
LINE
  8
0
 10
1.98456
 20
2.03432
 11
1.97903
 21
2.05582
  0
LINE
  8
0
 10
1.97903
 20
2.05582
 11
1.97903
 21
2.07802
  0
LINE
  8
0
 10
1.97903
 20
2.07802
 11
1.98456
 21
2.09953
  0
LINE
  8
0
 10
1.98456
 20
2.09953
 11
1.99525
 21
2.11899
  0
LINE
  8
0
 10
1.99525
 20
2.11899
 11
2.01045
 21
2.13518
  0
LINE
  8
0
 10
2.01045
 20
2.13518
 11
2.02921
 21
2.14708
  0
LINE
  8
0
 10
2.02921
 20
2.14708
 11
2.05032
 21
2.15393
  0
LINE
  8
0
 10
2.05032
 20
2.15393
 11
2.07248
 21
2.15533
  0
LINE
  8
0
 10
2.07248
 20
2.15533
 11
2.0943
 21
2.15117
  0
LINE
  8
0
 10
2.0943
 20
2.15117
 11
2.1144
 21
2.14171
  0
LINE
  8
0
 10
2.1144
 20
2.14171
 11
2.1315
 21
2.12756
  0
LINE
  8
0
 10
2.1315
 20
2.12756
 11
2.14455
 21
2.1096
  0
LINE
  8
0
 10
2.14455
 20
2.1096
 11
2.15273
 21
2.08896
  0
LINE
  8
0
 10
2.15273
 20
2.08896
 11
2.1555
 21
2.06693
  0
LINE
  8
0
 10
2.1555
 20
2.06693
 11
2.15273
 21
2.04489
  0
LINE
  8
0
 10
2.15273
 20
2.04489
 11
2.14455
 21
2.02425
  0
LINE
  8
0
 10
2.14455
 20
2.02425
 11
2.1315
 21
2.00629
  0
LINE
  8
0
 10
2.1315
 20
2.00629
 11
2.1144
 21
1.99213
  0
LINE
  8
0
 10
2.1144
 20
1.99213
 11
2.0943
 21
1.98268
  0
LINE
  8
0
 10
2.0943
 20
1.98268
 11
2.07248
 21
1.97852
  0
LINE
  8
0
 10
2.07248
 20
1.97852
 11
2.05032
 21
1.9799
  0
LINE
  8
0
 10
-2.08896
 20
1.98112
 11
-2.1096
 21
1.9893
  0
LINE
  8
0
 10
-2.1096
 20
1.9893
 11
-2.12756
 21
2.00235
  0
LINE
  8
0
 10
-2.12756
 20
2.00235
 11
-2.14171
 21
2.01945
  0
LINE
  8
0
 10
-2.14171
 20
2.01945
 11
-2.15117
 21
2.03955
  0
LINE
  8
0
 10
-2.15117
 20
2.03955
 11
-2.15533
 21
2.06136
  0
LINE
  8
0
 10
-2.15533
 20
2.06136
 11
-2.15393
 21
2.08353
  0
LINE
  8
0
 10
-2.15393
 20
2.08353
 11
-2.14708
 21
2.10464
  0
LINE
  8
0
 10
-2.14708
 20
2.10464
 11
-2.13518
 21
2.12338
  0
LINE
  8
0
 10
-2.13518
 20
2.12338
 11
-2.11899
 21
2.13858
  0
LINE
  8
0
 10
-2.11899
 20
2.13858
 11
-2.09953
 21
2.14929
  0
LINE
  8
0
 10
-2.09953
 20
2.14929
 11
-2.07802
 21
2.1548
  0
LINE
  8
0
 10
-2.07802
 20
2.1548
 11
-2.05582
 21
2.1548
  0
LINE
  8
0
 10
-2.05582
 20
2.1548
 11
-2.03432
 21
2.14929
  0
LINE
  8
0
 10
-2.03432
 20
2.14929
 11
-2.01486
 21
2.13858
  0
LINE
  8
0
 10
-2.01486
 20
2.13858
 11
-1.99867
 21
2.12338
  0
LINE
  8
0
 10
-1.99867
 20
2.12338
 11
-1.98677
 21
2.10464
  0
LINE
  8
0
 10
-1.98677
 20
2.10464
 11
-1.9799
 21
2.08353
  0
LINE
  8
0
 10
-1.9799
 20
2.08353
 11
-1.97852
 21
2.06136
  0
LINE
  8
0
 10
-1.97852
 20
2.06136
 11
-1.98268
 21
2.03955
  0
LINE
  8
0
 10
-1.98268
 20
2.03955
 11
-1.99213
 21
2.01945
  0
LINE
  8
0
 10
-1.99213
 20
2.01945
 11
-2.00629
 21
2.00235
  0
LINE
  8
0
 10
-2.00629
 20
2.00235
 11
-2.02425
 21
1.9893
  0
LINE
  8
0
 10
-2.02425
 20
1.9893
 11
-2.04489
 21
1.98112
  0
LINE
  8
0
 10
-2.04489
 20
1.98112
 11
-2.06693
 21
1.97833
  0
LINE
  8
0
 10
-2.06693
 20
1.97833
 11
-2.08896
 21
1.98112
  0
LINE
  8
0
 10
-2.09604
 20
1.08267
 11
-2.07001
 21
1.138
  0
LINE
  8
0
 10
-2.07001
 20
1.138
 11
-1.91106
 21
1.38846
  0
LINE
  8
0
 10
-1.91106
 20
1.38846
 11
-1.72197
 21
1.61703
  0
LINE
  8
0
 10
-1.72197
 20
1.61703
 11
-1.50572
 21
1.8201
  0
LINE
  8
0
 10
-1.50572
 20
1.8201
 11
-1.43695
 21
1.87007
  0
LINE
  8
0
 10
-1.43695
 20
1.87007
 11
1.43695
 21
1.87007
  0
LINE
  8
0
 10
1.43695
 20
1.87007
 11
1.50572
 21
1.8201
  0
LINE
  8
0
 10
1.50572
 20
1.8201
 11
1.72197
 21
1.61703
  0
LINE
  8
0
 10
1.72197
 20
1.61703
 11
1.91106
 21
1.38846
  0
LINE
  8
0
 10
1.91106
 20
1.38846
 11
2.07001
 21
1.138
  0
LINE
  8
0
 10
2.07001
 20
1.138
 11
2.09604
 21
1.08267
  0
LINE
  8
0
 10
2.09604
 20
1.08267
 11
-2.09604
 21
1.08267
  0
LINE
  8
0
 10
-2.356
 20
0.0984192
 11
-2.34357
 21
0.296051
  0
LINE
  8
0
 10
-2.34357
 20
0.296051
 11
-2.28798
 21
0.587448
  0
LINE
  8
0
 10
-2.28798
 20
0.587448
 11
-2.19632
 21
0.869583
  0
LINE
  8
0
 10
-2.19632
 20
0.869583
 11
-2.18867
 21
0.885818
  0
LINE
  8
0
 10
-2.18867
 20
0.885818
 11
2.18867
 21
0.885818
  0
LINE
  8
0
 10
2.18867
 20
0.885818
 11
2.19632
 21
0.869583
  0
LINE
  8
0
 10
2.19632
 20
0.869583
 11
2.28798
 21
0.587448
  0
LINE
  8
0
 10
2.28798
 20
0.587448
 11
2.34357
 21
0.296051
  0
LINE
  8
0
 10
2.34357
 20
0.296051
 11
2.356
 21
0.0984192
  0
LINE
  8
0
 10
2.356
 20
0.0984192
 11
-2.356
 21
0.0984192
  0
LINE
  8
0
 10
-2.18867
 20
-0.885818
 11
-2.19632
 21
-0.869583
  0
LINE
  8
0
 10
-2.19632
 20
-0.869583
 11
-2.28798
 21
-0.587448
  0
LINE
  8
0
 10
-2.28798
 20
-0.587448
 11
-2.34357
 21
-0.296051
  0
LINE
  8
0
 10
-2.34357
 20
-0.296051
 11
-2.356
 21
-0.0984192
  0
LINE
  8
0
 10
-2.356
 20
-0.0984192
 11
2.356
 21
-0.0984192
  0
LINE
  8
0
 10
2.356
 20
-0.0984192
 11
2.34357
 21
-0.296051
  0
LINE
  8
0
 10
2.34357
 20
-0.296051
 11
2.28798
 21
-0.587448
  0
LINE
  8
0
 10
2.28798
 20
-0.587448
 11
2.19632
 21
-0.869583
  0
LINE
  8
0
 10
2.19632
 20
-0.869583
 11
2.18867
 21
-0.885818
  0
LINE
  8
0
 10
2.18867
 20
-0.885818
 11
-2.18867
 21
-0.885818
  0
LINE
  8
0
 10
-1.43695
 20
-1.87007
 11
-1.50572
 21
-1.8201
  0
LINE
  8
0
 10
-1.50572
 20
-1.8201
 11
-1.72197
 21
-1.61703
  0
LINE
  8
0
 10
-1.72197
 20
-1.61703
 11
-1.91106
 21
-1.38846
  0
LINE
  8
0
 10
-1.91106
 20
-1.38846
 11
-2.07001
 21
-1.138
  0
LINE
  8
0
 10
-2.07001
 20
-1.138
 11
-2.09604
 21
-1.08267
  0
LINE
  8
0
 10
-2.09604
 20
-1.08267
 11
2.09604
 21
-1.08267
  0
LINE
  8
0
 10
2.09604
 20
-1.08267
 11
2.07001
 21
-1.138
  0
LINE
  8
0
 10
2.07001
 20
-1.138
 11
1.91106
 21
-1.38846
  0
LINE
  8
0
 10
1.91106
 20
-1.38846
 11
1.72197
 21
-1.61703
  0
LINE
  8
0
 10
1.72197
 20
-1.61703
 11
1.50572
 21
-1.8201
  0
LINE
  8
0
 10
1.50572
 20
-1.8201
 11
1.43695
 21
-1.87007
  0
LINE
  8
0
 10
1.43695
 20
-1.87007
 11
-1.43695
 21
-1.87007
  0
LINE
  8
0
 10
-2.08353
 20
-2.15393
 11
-2.10464
 21
-2.14708
  0
LINE
  8
0
 10
-2.10464
 20
-2.14708
 11
-2.12338
 21
-2.13518
  0
LINE
  8
0
 10
-2.12338
 20
-2.13518
 11
-2.13858
 21
-2.11899
  0
LINE
  8
0
 10
-2.13858
 20
-2.11899
 11
-2.14929
 21
-2.09953
  0
LINE
  8
0
 10
-2.14929
 20
-2.09953
 11
-2.1548
 21
-2.07802
  0
LINE
  8
0
 10
-2.1548
 20
-2.07802
 11
-2.1548
 21
-2.05582
  0
LINE
  8
0
 10
-2.1548
 20
-2.05582
 11
-2.14929
 21
-2.03432
  0
LINE
  8
0
 10
-2.14929
 20
-2.03432
 11
-2.13858
 21
-2.01486
  0
LINE
  8
0
 10
-2.13858
 20
-2.01486
 11
-2.12338
 21
-1.99867
  0
LINE
  8
0
 10
-2.12338
 20
-1.99867
 11
-2.10464
 21
-1.98677
  0
LINE
  8
0
 10
-2.10464
 20
-1.98677
 11
-2.08353
 21
-1.9799
  0
LINE
  8
0
 10
-2.08353
 20
-1.9799
 11
-2.06136
 21
-1.97852
  0
LINE
  8
0
 10
-2.06136
 20
-1.97852
 11
-2.03955
 21
-1.98268
  0
LINE
  8
0
 10
-2.03955
 20
-1.98268
 11
-2.01945
 21
-1.99213
  0
LINE
  8
0
 10
-2.01945
 20
-1.99213
 11
-2.00235
 21
-2.00629
  0
LINE
  8
0
 10
-2.00235
 20
-2.00629
 11
-1.9893
 21
-2.02425
  0
LINE
  8
0
 10
-1.9893
 20
-2.02425
 11
-1.98112
 21
-2.04489
  0
LINE
  8
0
 10
-1.98112
 20
-2.04489
 11
-1.97833
 21
-2.06693
  0
LINE
  8
0
 10
-1.97833
 20
-2.06693
 11
-1.98112
 21
-2.08896
  0
LINE
  8
0
 10
-1.98112
 20
-2.08896
 11
-1.9893
 21
-2.1096
  0
LINE
  8
0
 10
-1.9893
 20
-2.1096
 11
-2.00235
 21
-2.12756
  0
LINE
  8
0
 10
-2.00235
 20
-2.12756
 11
-2.01945
 21
-2.14171
  0
LINE
  8
0
 10
-2.01945
 20
-2.14171
 11
-2.03955
 21
-2.15117
  0
LINE
  8
0
 10
-2.03955
 20
-2.15117
 11
-2.06136
 21
-2.15533
  0
LINE
  8
0
 10
-2.06136
 20
-2.15533
 11
-2.08353
 21
-2.15393
  0
LINE
  8
0
 10
2.04489
 20
-2.15273
 11
2.02425
 21
-2.14455
  0
LINE
  8
0
 10
2.02425
 20
-2.14455
 11
2.00629
 21
-2.1315
  0
LINE
  8
0
 10
2.00629
 20
-2.1315
 11
1.99213
 21
-2.1144
  0
LINE
  8
0
 10
1.99213
 20
-2.1144
 11
1.98268
 21
-2.0943
  0
LINE
  8
0
 10
1.98268
 20
-2.0943
 11
1.97852
 21
-2.07248
  0
LINE
  8
0
 10
1.97852
 20
-2.07248
 11
1.9799
 21
-2.05032
  0
LINE
  8
0
 10
1.9799
 20
-2.05032
 11
1.98677
 21
-2.02921
  0
LINE
  8
0
 10
1.98677
 20
-2.02921
 11
1.99867
 21
-2.01045
  0
LINE
  8
0
 10
1.99867
 20
-2.01045
 11
2.01486
 21
-1.99525
  0
LINE
  8
0
 10
2.01486
 20
-1.99525
 11
2.03432
 21
-1.98456
  0
LINE
  8
0
 10
2.03432
 20
-1.98456
 11
2.05582
 21
-1.97903
  0
LINE
  8
0
 10
2.05582
 20
-1.97903
 11
2.07802
 21
-1.97903
  0
LINE
  8
0
 10
2.07802
 20
-1.97903
 11
2.09953
 21
-1.98456
  0
LINE
  8
0
 10
2.09953
 20
-1.98456
 11
2.11899
 21
-1.99525
  0
LINE
  8
0
 10
2.11899
 20
-1.99525
 11
2.13518
 21
-2.01045
  0
LINE
  8
0
 10
2.13518
 20
-2.01045
 11
2.14708
 21
-2.02921
  0
LINE
  8
0
 10
2.14708
 20
-2.02921
 11
2.15393
 21
-2.05032
  0
LINE
  8
0
 10
2.15393
 20
-2.05032
 11
2.15533
 21
-2.07248
  0
LINE
  8
0
 10
2.15533
 20
-2.07248
 11
2.15117
 21
-2.0943
  0
LINE
  8
0
 10
2.15117
 20
-2.0943
 11
2.14171
 21
-2.1144
  0
LINE
  8
0
 10
2.14171
 20
-2.1144
 11
2.12756
 21
-2.1315
  0
LINE
  8
0
 10
2.12756
 20
-2.1315
 11
2.1096
 21
-2.14455
  0
LINE
  8
0
 10
2.1096
 20
-2.14455
 11
2.08896
 21
-2.15273
  0
LINE
  8
0
 10
2.08896
 20
-2.15273
 11
2.06693
 21
-2.1555
  0
LINE
  8
0
 10
2.06693
 20
-2.1555
 11
2.04489
 21
-2.15273
  0
LINE
  8
0
 10
-0.148315
 20
-2.35754
 11
-0.442627
 21
-2.32036
  0
LINE
  8
0
 10
-0.442627
 20
-2.32036
 11
-0.72995
 21
-2.24658
  0
LINE
  8
0
 10
-0.72995
 20
-2.24658
 11
-1.00577
 21
-2.13737
  0
LINE
  8
0
 10
-1.00577
 20
-2.13737
 11
-1.13393
 21
-2.06693
  0
LINE
  8
0
 10
-1.13393
 20
-2.06693
 11
1.13393
 21
-2.06693
  0
LINE
  8
0
 10
1.13393
 20
-2.06693
 11
1.00577
 21
-2.13737
  0
LINE
  8
0
 10
1.00577
 20
-2.13737
 11
0.72995
 21
-2.24658
  0
LINE
  8
0
 10
0.72995
 20
-2.24658
 11
0.442627
 21
-2.32036
  0
LINE
  8
0
 10
0.442627
 20
-2.32036
 11
0.148315
 21
-2.35754
  0
LINE
  8
0
 10
0.148315
 20
-2.35754
 11
-0.148315
 21
-2.35754
  0
ENDSEC
  0
SECTION
  2
OBJECTS
  0
DICTIONARY
  0
ENDSEC
  0
EOF
