  0
SECTION
  2
BLOCKS
  0
ENDSEC
  0
SECTION
  2
ENTITIES
  0
LINE
  8
0
 10
2.75
 20
1
 11
0.5
 21
6
  0
LINE
  8
0
 10
0.5
 20
6
 11
0
 21
6
  0
LINE
  8
0
 10
0
 20
6
 11
0
 21
0
  0
LINE
  8
0
 10
0
 20
0
 11
2.75
 21
0
  0
LINE
  8
0
 10
2.75
 20
0
 11
2.75
 21
1
  0
LINE
  8
0
 10
0.25
 20
4.937
 11
0.25
 21
5.3307
  0
LINE
  8
0
 10
0.25
 20
5.3307
 11
0.368103
 21
5.3307
  0
LINE
  8
0
 10
0.368103
 20
5.3307
 11
0.368103
 21
4.937
  0
LINE
  8
0
 10
0.368103
 20
4.937
 11
0.25
 21
4.937
  0
LINE
  8
0
 10
0.25
 20
4.1496
 11
0.25
 21
4.5433
  0
LINE
  8
0
 10
0.25
 20
4.5433
 11
0.368103
 21
4.5433
  0
LINE
  8
0
 10
0.368103
 20
4.5433
 11
0.368103
 21
4.1496
  0
LINE
  8
0
 10
0.368103
 20
4.1496
 11
0.25
 21
4.1496
  0
LINE
  8
0
 10
0.25
 20
3.3622
 11
0.25
 21
3.75591
  0
LINE
  8
0
 10
0.25
 20
3.75591
 11
0.368103
 21
3.75591
  0
LINE
  8
0
 10
0.368103
 20
3.75591
 11
0.368103
 21
3.3622
  0
LINE
  8
0
 10
0.368103
 20
3.3622
 11
0.25
 21
3.3622
  0
LINE
  8
0
 10
0.25
 20
2.5748
 11
0.25
 21
2.96849
  0
LINE
  8
0
 10
0.25
 20
2.96849
 11
0.368103
 21
2.96849
  0
LINE
  8
0
 10
0.368103
 20
2.96849
 11
0.368103
 21
2.5748
  0
LINE
  8
0
 10
0.368103
 20
2.5748
 11
0.25
 21
2.5748
  0
LINE
  8
0
 10
0.25
 20
1.7874
 11
0.25
 21
2.18109
  0
LINE
  8
0
 10
0.25
 20
2.18109
 11
0.368103
 21
2.18109
  0
LINE
  8
0
 10
0.368103
 20
2.18109
 11
0.368103
 21
1.7874
  0
LINE
  8
0
 10
0.368103
 20
1.7874
 11
0.25
 21
1.7874
  0
LINE
  8
0
 10
0.25
 20
1
 11
0.25
 21
1.39369
  0
LINE
  8
0
 10
0.25
 20
1.39369
 11
0.368103
 21
1.39369
  0
LINE
  8
0
 10
0.368103
 20
1.39369
 11
0.368103
 21
1
  0
LINE
  8
0
 10
0.368103
 20
1
 11
0.25
 21
1
  0
LINE
  8
0
 10
2.25
 20
0.25
 11
2.25
 21
0.75
  0
LINE
  8
0
 10
2.25
 20
0.75
 11
2.3681
 21
0.75
  0
LINE
  8
0
 10
2.3681
 20
0.75
 11
2.3681
 21
0.25
  0
LINE
  8
0
 10
2.3681
 20
0.25
 11
2.25
 21
0.25
  0
ENDSEC
  0
SECTION
  2
OBJECTS
  0
DICTIONARY
  0
ENDSEC
  0
EOF
