  0
SECTION
  2
BLOCKS
  0
ENDSEC
  0
SECTION
  2
ENTITIES
  0
LINE
  8
0
 10
2.75737
 20
-0.0386658
 11
2.77509
 21
-0.0303345
  0
LINE
  8
0
 10
2.77509
 20
-0.0303345
 11
2.78659
 21
-0.0144806
  0
LINE
  8
0
 10
2.78659
 20
-0.0144806
 11
2.78937
 21
0
  0
LINE
  8
0
 10
2.78937
 20
0
 11
2.78813
 21
1.00978
  0
LINE
  8
0
 10
2.78813
 20
1.00978
 11
0.536591
 21
6.01448
  0
LINE
  8
0
 10
0.536591
 20
6.01448
 11
0.525085
 21
6.03033
  0
LINE
  8
0
 10
0.525085
 20
6.03033
 11
0.50737
 21
6.03867
  0
LINE
  8
0
 10
0.50737
 20
6.03867
 11
-0.00737
 21
6.03867
  0
LINE
  8
0
 10
-0.00737
 20
6.03867
 11
-0.0250854
 21
6.03033
  0
LINE
  8
0
 10
-0.0250854
 20
6.03033
 11
-0.0365906
 21
6.01448
  0
LINE
  8
0
 10
-0.0365906
 20
6.01448
 11
-0.0393677
 21
6
  0
LINE
  8
0
 10
-0.0393677
 20
6
 11
-0.0381317
 21
-0.00978088
  0
LINE
  8
0
 10
-0.0381317
 20
-0.00978088
 11
-0.0286865
 21
-0.026947
  0
LINE
  8
0
 10
-0.0286865
 20
-0.026947
 11
-0.0121613
 21
-0.0374298
  0
LINE
  8
0
 10
-0.0121613
 20
-0.0374298
 11
-0.00247192
 21
-0.0392914
  0
LINE
  8
0
 10
-0.00247192
 20
-0.0392914
 11
2.75737
 21
-0.0386658
  0
LINE
  8
0
 10
0.25
 20
4.937
 11
0.25
 21
5.3307
  0
LINE
  8
0
 10
0.25
 20
5.3307
 11
0.368103
 21
5.3307
  0
LINE
  8
0
 10
0.368103
 20
5.3307
 11
0.368103
 21
4.937
  0
LINE
  8
0
 10
0.368103
 20
4.937
 11
0.25
 21
4.937
  0
LINE
  8
0
 10
0.25
 20
4.1496
 11
0.25
 21
4.5433
  0
LINE
  8
0
 10
0.25
 20
4.5433
 11
0.368103
 21
4.5433
  0
LINE
  8
0
 10
0.368103
 20
4.5433
 11
0.368103
 21
4.1496
  0
LINE
  8
0
 10
0.368103
 20
4.1496
 11
0.25
 21
4.1496
  0
LINE
  8
0
 10
0.25
 20
3.3622
 11
0.25
 21
3.75591
  0
LINE
  8
0
 10
0.25
 20
3.75591
 11
0.368103
 21
3.75591
  0
LINE
  8
0
 10
0.368103
 20
3.75591
 11
0.368103
 21
3.3622
  0
LINE
  8
0
 10
0.368103
 20
3.3622
 11
0.25
 21
3.3622
  0
LINE
  8
0
 10
0.25
 20
2.5748
 11
0.25
 21
2.96849
  0
LINE
  8
0
 10
0.25
 20
2.96849
 11
0.368103
 21
2.96849
  0
LINE
  8
0
 10
0.368103
 20
2.96849
 11
0.368103
 21
2.5748
  0
LINE
  8
0
 10
0.368103
 20
2.5748
 11
0.25
 21
2.5748
  0
LINE
  8
0
 10
0.25
 20
1.7874
 11
0.25
 21
2.18109
  0
LINE
  8
0
 10
0.25
 20
2.18109
 11
0.368103
 21
2.18109
  0
LINE
  8
0
 10
0.368103
 20
2.18109
 11
0.368103
 21
1.7874
  0
LINE
  8
0
 10
0.368103
 20
1.7874
 11
0.25
 21
1.7874
  0
LINE
  8
0
 10
0.25
 20
1
 11
0.25
 21
1.39369
  0
LINE
  8
0
 10
0.25
 20
1.39369
 11
0.368103
 21
1.39369
  0
LINE
  8
0
 10
0.368103
 20
1.39369
 11
0.368103
 21
1
  0
LINE
  8
0
 10
0.368103
 20
1
 11
0.25
 21
1
  0
LINE
  8
0
 10
2.25
 20
0.5
 11
2.25
 21
1
  0
LINE
  8
0
 10
2.25
 20
1
 11
2.3681
 21
1
  0
LINE
  8
0
 10
2.3681
 20
1
 11
2.3681
 21
0.5
  0
LINE
  8
0
 10
2.3681
 20
0.5
 11
2.25
 21
0.5
  0
ENDSEC
  0
SECTION
  2
OBJECTS
  0
DICTIONARY
  0
ENDSEC
  0
EOF
